<mxfile host="app.diagrams.net" agent="Mozilla/5.0 (Windows NT 10.0; Win64; x64) AppleWebKit/537.36 (KHTML, like Gecko) Chrome/140.0.0.0 Safari/537.36 Edg/140.0.0.0" version="28.2.5">
  <diagram name="Page-1" id="JcAD-2Twrlb0UaUKfx60">
    <mxGraphModel dx="1098" dy="606" grid="1" gridSize="10" guides="1" tooltips="1" connect="1" arrows="1" fold="1" page="1" pageScale="1" pageWidth="850" pageHeight="1100" math="0" shadow="0">
      <root>
        <mxCell id="0" />
        <mxCell id="1" parent="0" />
        <mxCell id="5eiBCOE_EwidVmI4TjJT-3" value="" style="edgeStyle=orthogonalEdgeStyle;rounded=0;orthogonalLoop=1;jettySize=auto;html=1;" edge="1" parent="1" source="5eiBCOE_EwidVmI4TjJT-1" target="5eiBCOE_EwidVmI4TjJT-2">
          <mxGeometry relative="1" as="geometry" />
        </mxCell>
        <mxCell id="5eiBCOE_EwidVmI4TjJT-1" value="Start: Tutor Logs in" style="rounded=0;whiteSpace=wrap;html=1;" vertex="1" parent="1">
          <mxGeometry x="365" y="10" width="120" height="60" as="geometry" />
        </mxCell>
        <mxCell id="5eiBCOE_EwidVmI4TjJT-5" value="" style="edgeStyle=orthogonalEdgeStyle;rounded=0;orthogonalLoop=1;jettySize=auto;html=1;" edge="1" parent="1" source="5eiBCOE_EwidVmI4TjJT-2" target="5eiBCOE_EwidVmI4TjJT-4">
          <mxGeometry relative="1" as="geometry" />
        </mxCell>
        <mxCell id="5eiBCOE_EwidVmI4TjJT-2" value="Check &#39;AI Query Review&#39; Queue" style="whiteSpace=wrap;html=1;rounded=0;" vertex="1" parent="1">
          <mxGeometry x="365" y="90" width="120" height="60" as="geometry" />
        </mxCell>
        <mxCell id="5eiBCOE_EwidVmI4TjJT-7" value="No" style="edgeStyle=orthogonalEdgeStyle;rounded=0;orthogonalLoop=1;jettySize=auto;html=1;" edge="1" parent="1" source="5eiBCOE_EwidVmI4TjJT-4" target="5eiBCOE_EwidVmI4TjJT-6">
          <mxGeometry relative="1" as="geometry" />
        </mxCell>
        <mxCell id="5eiBCOE_EwidVmI4TjJT-11" value="Yes" style="edgeStyle=orthogonalEdgeStyle;rounded=0;orthogonalLoop=1;jettySize=auto;html=1;" edge="1" parent="1" source="5eiBCOE_EwidVmI4TjJT-4" target="5eiBCOE_EwidVmI4TjJT-10">
          <mxGeometry relative="1" as="geometry" />
        </mxCell>
        <mxCell id="5eiBCOE_EwidVmI4TjJT-4" value="Queries available?" style="rhombus;whiteSpace=wrap;html=1;rounded=0;" vertex="1" parent="1">
          <mxGeometry x="385" y="180" width="80" height="80" as="geometry" />
        </mxCell>
        <mxCell id="5eiBCOE_EwidVmI4TjJT-9" value="" style="edgeStyle=orthogonalEdgeStyle;rounded=0;orthogonalLoop=1;jettySize=auto;html=1;" edge="1" parent="1" source="5eiBCOE_EwidVmI4TjJT-6" target="5eiBCOE_EwidVmI4TjJT-8">
          <mxGeometry relative="1" as="geometry" />
        </mxCell>
        <mxCell id="5eiBCOE_EwidVmI4TjJT-6" value="Display &#39;No pending queries&#39;" style="whiteSpace=wrap;html=1;rounded=0;" vertex="1" parent="1">
          <mxGeometry x="205" y="190" width="120" height="60" as="geometry" />
        </mxCell>
        <mxCell id="5eiBCOE_EwidVmI4TjJT-8" value="End" style="whiteSpace=wrap;html=1;rounded=0;" vertex="1" parent="1">
          <mxGeometry x="60" y="190" width="120" height="60" as="geometry" />
        </mxCell>
        <mxCell id="5eiBCOE_EwidVmI4TjJT-13" value="" style="edgeStyle=orthogonalEdgeStyle;rounded=0;orthogonalLoop=1;jettySize=auto;html=1;" edge="1" parent="1" source="5eiBCOE_EwidVmI4TjJT-10" target="5eiBCOE_EwidVmI4TjJT-12">
          <mxGeometry relative="1" as="geometry" />
        </mxCell>
        <mxCell id="5eiBCOE_EwidVmI4TjJT-10" value="Review Query Details" style="whiteSpace=wrap;html=1;rounded=0;" vertex="1" parent="1">
          <mxGeometry x="365" y="310" width="120" height="60" as="geometry" />
        </mxCell>
        <mxCell id="5eiBCOE_EwidVmI4TjJT-15" value="" style="edgeStyle=orthogonalEdgeStyle;rounded=0;orthogonalLoop=1;jettySize=auto;html=1;" edge="1" parent="1" source="5eiBCOE_EwidVmI4TjJT-12" target="5eiBCOE_EwidVmI4TjJT-14">
          <mxGeometry relative="1" as="geometry" />
        </mxCell>
        <mxCell id="5eiBCOE_EwidVmI4TjJT-12" value="Tutor Composes Improved response" style="shape=parallelogram;perimeter=parallelogramPerimeter;whiteSpace=wrap;html=1;fixedSize=1;rounded=0;" vertex="1" parent="1">
          <mxGeometry x="365" y="400" width="120" height="60" as="geometry" />
        </mxCell>
        <mxCell id="5eiBCOE_EwidVmI4TjJT-17" value="" style="edgeStyle=orthogonalEdgeStyle;rounded=0;orthogonalLoop=1;jettySize=auto;html=1;" edge="1" parent="1" source="5eiBCOE_EwidVmI4TjJT-14" target="5eiBCOE_EwidVmI4TjJT-16">
          <mxGeometry relative="1" as="geometry" />
        </mxCell>
        <mxCell id="5eiBCOE_EwidVmI4TjJT-14" value="Submit Response" style="whiteSpace=wrap;html=1;rounded=0;" vertex="1" parent="1">
          <mxGeometry x="365" y="480" width="120" height="60" as="geometry" />
        </mxCell>
        <mxCell id="5eiBCOE_EwidVmI4TjJT-19" value="" style="edgeStyle=orthogonalEdgeStyle;rounded=0;orthogonalLoop=1;jettySize=auto;html=1;" edge="1" parent="1" source="5eiBCOE_EwidVmI4TjJT-16" target="5eiBCOE_EwidVmI4TjJT-18">
          <mxGeometry relative="1" as="geometry" />
        </mxCell>
        <mxCell id="5eiBCOE_EwidVmI4TjJT-16" value="Ai updates based on response" style="whiteSpace=wrap;html=1;rounded=0;" vertex="1" parent="1">
          <mxGeometry x="365" y="570" width="120" height="60" as="geometry" />
        </mxCell>
        <mxCell id="5eiBCOE_EwidVmI4TjJT-21" value="" style="edgeStyle=orthogonalEdgeStyle;rounded=0;orthogonalLoop=1;jettySize=auto;html=1;" edge="1" parent="1" source="5eiBCOE_EwidVmI4TjJT-18" target="5eiBCOE_EwidVmI4TjJT-20">
          <mxGeometry relative="1" as="geometry" />
        </mxCell>
        <mxCell id="5eiBCOE_EwidVmI4TjJT-18" value="Email sent to user" style="whiteSpace=wrap;html=1;rounded=0;" vertex="1" parent="1">
          <mxGeometry x="365" y="660" width="120" height="60" as="geometry" />
        </mxCell>
        <mxCell id="5eiBCOE_EwidVmI4TjJT-23" value="" style="edgeStyle=orthogonalEdgeStyle;rounded=0;orthogonalLoop=1;jettySize=auto;html=1;" edge="1" parent="1" source="5eiBCOE_EwidVmI4TjJT-20" target="5eiBCOE_EwidVmI4TjJT-22">
          <mxGeometry relative="1" as="geometry" />
        </mxCell>
        <mxCell id="5eiBCOE_EwidVmI4TjJT-20" value="Query marked as Resolved" style="whiteSpace=wrap;html=1;rounded=0;" vertex="1" parent="1">
          <mxGeometry x="365" y="750" width="120" height="60" as="geometry" />
        </mxCell>
        <mxCell id="5eiBCOE_EwidVmI4TjJT-22" value="" style="whiteSpace=wrap;html=1;rounded=0;" vertex="1" parent="1">
          <mxGeometry x="365" y="840" width="120" height="60" as="geometry" />
        </mxCell>
      </root>
    </mxGraphModel>
  </diagram>
</mxfile>
